<svg id="Layer_1" data-name="Layer 1" xmlns="http://www.w3.org/2000/svg" viewBox="0 0 775 778"><defs><style>.cls-1{fill:none;stroke:#FFFFFF;stroke-miterlimit:10;stroke-width:14px;}.cls-2{fill:#005093;}.cls-3{fill:#f43000;}.cls-4{fill:#FFFFFF;}</style></defs><rect class="cls-1" x="7" y="7" width="761" height="764" rx="148.57"/><path class="cls-2" d="M401.86,754.91c-192.8,0-350.54-156.53-350.54-347.85,0-41.11,6.37-80.64,20.71-118.58,6.38-15.82,23.9-25.3,41.43-19,15.93,6.33,25.49,23.72,19.12,41.11-11.15,31.62-17.53,63.25-17.53,96.45,0,156.53,129.07,284.6,286.81,284.6s286.81-128.07,286.81-284.6c0-126.49-86-240.33-208.73-273.54-17.53-4.74-27.09-22.13-22.31-39.52s22.31-26.88,39.84-22.14c149.77,42.69,254.94,180.25,254.94,335.2C752.41,598.38,594.66,754.91,401.86,754.91Z" transform="translate(-15 -13)"/><ellipse class="cls-3" cx="323.13" cy="93.65" rx="63.74" ry="63.25"/><path class="cls-4" d="M446.48,362.79c-44.62-44.27-296.37-237.17-296.37-237.17A22.08,22.08,0,0,0,123,128.78a21.64,21.64,0,0,0-3.19,26.88S327,421.29,357.25,451.33c25.49,25.3,65.33,25.3,90.82,0C472,427.61,472,386.5,446.48,362.79Z" transform="translate(-15 -13)"/></svg>