<?xml version="1.0" encoding="utf-8"?>
<!-- Generator: Adobe Illustrator 25.3.1, SVG Export Plug-In . SVG Version: 6.00 Build 0)  -->
<svg version="1.1" id="Layer_1" xmlns="http://www.w3.org/2000/svg" xmlns:xlink="http://www.w3.org/1999/xlink" x="0px" y="0px"
	 viewBox="0 0 495 495" style="enable-background:new 0 0 495 495;" xml:space="preserve">
<style type="text/css">
	.st0{fill:none;stroke:#00077F;stroke-width:20.4866;stroke-miterlimit:10;}
	.st1{fill:none;stroke:#00077F;stroke-width:14.7539;stroke-miterlimit:10;}
</style>
<g>
	<ellipse class="st0" cx="248.4" cy="270.89" rx="177.43" ry="169.85"/>
	<line class="st0" x1="202.48" y1="56.27" x2="289.82" y2="57.33"/>
	<line class="st0" x1="248.4" y1="101.04" x2="248.35" y2="53.49"/>
	<line class="st0" x1="256.95" y1="262.84" x2="344.87" y2="180.07"/>
	<line class="st0" x1="279.06" y1="380.51" x2="279.06" y2="342.72"/>
	<line class="st0" x1="305.38" y1="371.26" x2="304.19" y2="317.42"/>
	<line class="st0" x1="335.19" y1="356.27" x2="335.19" y2="294.42"/>
	<line class="st0" x1="365.21" y1="341" x2="365.21" y2="302.63"/>
	<ellipse class="st0" cx="244.66" cy="280.01" rx="21.74" ry="20.81"/>
</g>
<path class="st1" d="M376.47,482.4H120.33c-59.21,0-107.21-48-107.21-107.21V119.04c0-59.21,48-107.21,107.21-107.21h256.15
	c59.21,0,107.21,48,107.21,107.21v256.15C483.69,434.4,435.69,482.4,376.47,482.4z"/>
</svg>
